<svg width="520" height="110" viewBox="0 0 520 110" fill="none" xmlns="http://www.w3.org/2000/svg">
  <rect width="520" height="110" rx="16" fill="#020617"/>
  <g transform="translate(28,28)">
    <path d="M4 14a1 1 0 0 1-.78-1.63l9.9-10.2a.5.5 0 0 1 .86.46l-1.92 6.02A1 1 0 0 0 13 10h7a1 1 0 0 1 .78 1.63l-9.9 10.2a.5.5 0 0 1-.86-.46l1.92-6.02A1 1 0 0 0 11 14z" stroke="#38BDF8" stroke-width="2.6" stroke-linecap="round" stroke-linejoin="round"/>
  </g>
  <text x="105" y="68" fill="#F1F5F9" font-family="Inter, Segoe UI, Helvetica, Arial, sans-serif" font-size="56" font-weight="700">AfterThought</text>
</svg>
